<?xml version="1.0" encoding="UTF-8" standalone="no"?>
<!-- Created with Inkscape (http://www.inkscape.org/) -->
<svg
   xmlns:svg="http://www.w3.org/2000/svg"
   xmlns="http://www.w3.org/2000/svg"
   version="1.0"
   width="400"
   height="400"
   id="svg2">
  <defs
     id="defs4" />
  <g
     id="layer1">
    <path
       d="M 200.30535,69.729172 C 205.21044,69.729172 236.50709,141.52218 240.4754,144.40532 C 244.4437,147.28846 322.39411,154.86809 323.90987,159.53312 C 325.42562,164.19814 266.81761,216.14828 265.30186,220.81331 C 263.7861,225.47833 280.66544,301.9558 276.69714,304.83894 C 272.72883,307.72209 205.21044,268.03603 200.30534,268.03603 C 195.40025,268.03603 127.88185,307.72208 123.91355,304.83894 C 119.94524,301.9558 136.82459,225.47832 135.30883,220.8133 C 133.79307,216.14828 75.185066,164.19813 76.700824,159.53311 C 78.216581,154.86809 156.16699,147.28846 160.13529,144.40532 C 164.1036,141.52218 195.40025,69.729172 200.30535,69.729172 z "
       style="opacity:1;fill:#fdff87;fill-opacity:1;stroke:#B54849;stroke-width:2;stroke-linecap:round;stroke-miterlimit:4;stroke-dasharray:none;stroke-opacity:1"
       id="path2160" />
  </g>
</svg>
